<?xml version="1.0" encoding="UTF-8"?>
<svg width="280px" height="100px" viewBox="0 0 280 100" version="1.1" xmlns="http://www.w3.org/2000/svg" xmlns:xlink="http://www.w3.org/1999/xlink">
    <title>Logo</title>
    <defs>
        <linearGradient x1="50%" y1="2.46519033e-30%" x2="50%" y2="100%" id="linearGradient-1">
            <stop stop-color="#E02020" offset="0%"></stop>
            <stop stop-color="#FA6400" offset="16.7194618%"></stop>
            <stop stop-color="#F7B500" offset="33.3898731%"></stop>
            <stop stop-color="#6DD400" offset="50.0513863%"></stop>
            <stop stop-color="#0091FF" offset="66.5668601%"></stop>
            <stop stop-color="#6236FF" offset="83.3200233%"></stop>
            <stop stop-color="#B620E0" offset="100%"></stop>
        </linearGradient>
        <path d="M42.9036576,38.1278079 L56.4727298,38.1278079 L63.9468446,51.0724245 L57.5800061,62.5722308 L42.9783087,62.5722308 L35.8847112,50.2855345 L42.9036576,38.1278079 Z M83.3459645,36.4398722 L56.9813449,36.4398722 C56.9659499,36.4398722 56.9511359,36.4398722 56.9354504,36.4398722 L43.8776075,36.4398722 L56.51601,14.591983 C68.7097011,16.8312355 78.7724953,25.234605 83.3459645,36.4398722 Z M78.230476,72.3126452 C83.0923832,66.1743803 86,58.4205074 86,50 C86,45.8418861 85.2892169,41.8467273 83.9855821,38.1278079 L58.4209202,38.1278079 L65.6365156,50.6242254 C65.6443583,50.6361348 65.6513297,50.6486251 65.6638199,50.671282 L78.230476,72.3126452 Z M46.6858832,85.8460496 L64.9292182,52.7792409 L77.0805005,73.6929706 C70.4766374,81.2313129 60.7853559,86 49.9998693,86 C48.8824265,86 47.7777645,85.9462626 46.6858832,85.8460496 L46.6858832,85.8460496 Z M16.9479633,64.2601665 C21.830552,75.5322424 32.31482,83.834237 44.8713096,85.6331332 L56.6438173,64.2601665 L42.5152975,64.2601665 C42.500193,64.2601665 42.4845076,64.2601665 42.4694031,64.2601665 L16.9479633,64.2601665 Z M21.2311647,28.3833269 L34.1151605,50.5960496 L34.125908,50.6213207 C34.1535027,50.6878389 34.1895212,50.7505809 34.2333823,50.807804 L34.2502297,50.8295895 L41.0295373,62.5722308 L16.2670407,62.5722308 C14.8022234,58.656371 14,54.4201201 14,50 C14,41.8946553 16.6936267,34.4068552 21.2311647,28.3833269 Z M49.9998693,14 C38.9056118,14 28.9680106,19.0460883 22.3592387,26.9626259 L34.9110517,48.5958559 L54.729612,14.311096 C53.1819814,14.1063129 51.6032704,14 49.9998693,14 L49.9998693,14 Z" id="path-2"></path>
    </defs>
    <g id="Logo" stroke="none" stroke-width="1" fill="none" fill-rule="evenodd">
        <text id="Mosaic" font-family="Montserrat-Medium, Montserrat" font-size="48" font-weight="400" fill="#000000">
            <tspan x="96" y="68">Mosaic</tspan>
        </text>
        <mask id="mask-3" fill="white">
            <use xlink:href="#path-2"></use>
        </mask>
        <use id="Aperture" fill-opacity="0.8" fill="url(#linearGradient-1)" xlink:href="#path-2"></use>
    </g>
</svg>